<?xml version="1.0" encoding="utf-8"?>
<!-- Svg Vector Icons : http://www.onlinewebfonts.com/icon -->
<!DOCTYPE svg PUBLIC "-//W3C//DTD SVG 1.1//EN" "http://www.w3.org/Graphics/SVG/1.1/DTD/svg11.dtd">
<svg version="1.1" xmlns="http://www.w3.org/2000/svg" xmlns:xlink="http://www.w3.org/1999/xlink" x="0px" y="0px" viewBox="0 0 256 256" enable-background="new 0 0 256 256" xml:space="preserve">
<metadata> Svg Vector Icons : http://www.onlinewebfonts.com/icon </metadata>
<g><g><g><path fill="#000000" d="M10,21.4v11.4h5.7h5.7v79.9v79.9h7.8H37l0.6,2c1.6,5.3,6,11.1,10.6,13.7l2.2,1.3l-3.1,1.6c-4.2,2.1-8.9,6.9-11.2,11.3c-2.4,4.6-3.2,8.5-3.2,16.6v6.8h26.7h26.7l-0.2-8.2c-0.2-8.9-0.9-11.6-3.9-16.8c-2-3.3-6.8-7.9-10.4-9.8l-3.1-1.6l2.2-1.3c4.5-2.6,9-8.4,10.6-13.7l0.6-2h11.8h11.8l0.6,2c1.6,5.3,6,11.1,10.6,13.7l2.2,1.3l-3.1,1.6c-3.6,1.9-8.4,6.5-10.4,9.8c-3.1,5.2-3.7,7.9-3.9,16.8l-0.2,8.2H128h26.7l-0.2-8.2c-0.2-8.9-0.9-11.5-3.9-16.7c-2-3.3-6.8-7.9-10.4-9.8l-3.1-1.6l2.2-1.3c4.5-2.6,9-8.4,10.6-13.7l0.6-2h11.8H174l0.6,2c1.6,5.3,6,11.1,10.6,13.7l2.2,1.3l-3.1,1.6c-3.6,1.9-8.4,6.5-10.4,9.8c-3.1,5.2-3.7,7.9-3.9,16.7l-0.2,8.2h26.7h26.7v-6.6c0-8.2-0.5-11.2-2.9-16.1c-2.3-4.9-6.9-9.7-11.5-12l-3.1-1.6l2.2-1.3c4.5-2.6,9-8.4,10.6-13.6l0.6-2h7.8h7.8v-79.9V32.8h5.7h5.7V21.4V10H128H10V21.4z M238.4,21.4v3.8H128H17.6v-3.8v-3.8H128h110.4V21.4z M227,109v76.1H223h-4l-0.6-2c-3.2-10.7-14.8-18.4-25-16.7c-8.6,1.5-16.4,8.3-18.8,16.7l-0.6,2h-11.8h-11.8l-0.6-2c-2.5-8.3-10.2-15.2-18.8-16.7c-10.3-1.8-21.8,5.9-25,16.7l-0.6,2H93.7H82l-0.6-2c-2.5-8.3-10.2-15.2-18.8-16.7c-10.3-1.8-21.8,5.9-25,16.7l-0.6,2h-4H29V109V32.8h99h99V109z M66.4,175.1c2.9,1.4,5.5,3.9,6.9,6.9c1,2,1.1,3,1.1,6.9c0,5.2-1,7.9-4,10.9c-3,3-5.8,4-10.9,4c-3.9,0-4.9-0.2-6.9-1.1c-4.9-2.4-7.9-6.9-8.3-12.4c-0.5-7.6,3-13.5,9.7-15.8C57.4,173.3,63.2,173.6,66.4,175.1z M134.9,175.1c3,1.4,5.5,3.9,6.9,6.9c1,2,1.1,3,1.1,6.9c0,5.2-1,7.9-4,10.9c-3,3-5.8,4-10.9,4c-3.8,0-4.9-0.2-6.9-1.1c-4.9-2.4-7.9-6.9-8.3-12.4c-0.5-7.6,3-13.5,9.7-15.8C125.9,173.3,131.7,173.6,134.9,175.1z M203.4,175.1c3,1.4,5.4,3.9,6.9,6.9c1,2,1.2,3.1,1.2,6.9c0,5.2-1,7.9-4,10.9c-3,3-5.8,4-10.9,4c-5.2,0-7.9-1-10.9-4c-3.6-3.6-5.1-9.8-3.9-15.1c1.2-4.8,5.1-8.9,9.8-10.4C194.5,173.3,200.6,173.7,203.4,175.1z M66.6,216.7c5,1.8,9.8,7.1,11.2,12.4c0.4,1.5,0.7,4.3,0.7,6v3.2h-19h-19v-3.6c0-8.7,4.5-15.3,12.5-18.2c2.5-0.9,3.6-1,7.2-0.9C62.6,215.8,65.4,216.3,66.6,216.7z M134.2,216.5c7.9,2.4,12.8,9.7,12.8,18.7v3.2h-19h-19v-3.6c0-4.4,1.3-8.6,3.6-11.8C117.2,216.7,126.2,214,134.2,216.5z M202.8,216.5c5.4,1.8,9.4,5.5,11.5,10.8c0.5,1.4,1,4,1.1,6.6l0.2,4.4h-19.1h-19.1v-3.5c0-11.2,7.8-19.2,18.9-19.3C198.7,215.5,200.8,215.9,202.8,216.5z"/><path fill="#000000" d="M82.3,52.1l-2.6,2.6l3.3,3.3l3.3,3.3L83,64.7L79.7,68l2.8,2.7l2.7,2.8l3.3-3.3l3.3-3.3l3.3,3.3l3.3,3.3l2.7-2.8L104,68l-3.3-3.3l-3.3-3.3l3.3-3.3l3.3-3.3l-2.8-2.7l-2.7-2.8l-3.3,3.3l-3.3,3.3l-3.2-3.2c-1.8-1.8-3.3-3.2-3.5-3.2C85,49.5,83.8,50.7,82.3,52.1z"/><path fill="#000000" d="M188,52.3c-10.4,3.4-13.7,15.1-6.1,22.2c2.7,2.6,5.5,3.7,8.9,3.7c2.3,0,3.6-0.3,5.2-1.1c10.4-5.4,10.5-18.6,0-23.8C193.8,52.2,189.9,51.7,188,52.3z M194.9,61.1c1.4,1.4,1.6,1.9,1.6,4.1c0,2.2-0.2,2.7-1.6,4.1s-1.9,1.6-4.1,1.6c-2.2,0-2.7-0.2-4.1-1.6s-1.6-1.9-1.6-4.1c0-2.2,0.2-2.7,1.6-4.1c1.4-1.4,1.9-1.6,4.1-1.6C193,59.5,193.5,59.7,194.9,61.1z"/><path fill="#000000" d="M150.8,59.7l-2.6,2.6l3.2,3.2l3.1,3.1l-4.5,1.6c-25.8,9-47.1,31.1-57.5,59.9c-3.2,8.7-7.1,26.4-6.2,27.9c0.2,0.2,1.9,0.4,3.8,0.4h3.5l0.6-4.4c0.3-2.4,1.2-6.9,2-9.8c7.9-32.4,28.9-57.3,56.7-67c2.3-0.8,4.1-1.3,4.1-1.1c0,0.2-0.5,2.3-1.1,4.8l-1.1,4.4l1.3,0.3c0.7,0.1,2.3,0.6,3.7,0.9l2.4,0.6l2.2-8.6l2.2-8.6l-6.3-6.3c-3.4-3.4-6.3-6.3-6.5-6.3C153.6,57.1,152.3,58.3,150.8,59.7z"/><path fill="#000000" d="M44.3,97.8l-2.6,2.6l3.3,3.3l3.3,3.3l-3.3,3.3l-3.3,3.3l2.8,2.7l2.7,2.8l3.3-3.3l3.3-3.3l3.3,3.3l3.3,3.3l2.7-2.8l2.8-2.7l-3.3-3.3l-3.3-3.3l3.3-3.3l3.3-3.3l-2.8-2.7l-2.7-2.8l-3.3,3.3l-3.3,3.3l-3.2-3.2c-1.8-1.8-3.3-3.2-3.5-3.2C47,95.2,45.7,96.4,44.3,97.8z"/><path fill="#000000" d="M143.2,120.6l-2.6,2.6l3.3,3.3l3.3,3.3l-3.3,3.3l-3.3,3.3l2.8,2.7l2.7,2.8l3.3-3.3l3.3-3.3l3.3,3.3l3.3,3.3l2.7-2.8l2.8-2.7l-3.3-3.3l-3.3-3.3l3.3-3.3l3.3-3.3l-2.8-2.7l-2.7-2.8l-3.3,3.3l-3.3,3.3l-3.2-3.2c-1.8-1.8-3.3-3.2-3.5-3.2C145.9,118,144.7,119.2,143.2,120.6z"/></g></g></g>
</svg>